<?xml version="1.0" standalone="no"?>
<!DOCTYPE svg PUBLIC "-//W3C//DTD SVG 20010904//EN"
 "http://www.w3.org/TR/2001/REC-SVG-20010904/DTD/svg10.dtd">
<svg version="1.0" xmlns="http://www.w3.org/2000/svg"
 width="1500.000000pt" height="1159.000000pt" viewBox="0 0 1500.000000 1159.000000"
 preserveAspectRatio="xMidYMid meet">
<metadata>
Created by potrace 1.16, written by Peter Selinger 2001-2019
</metadata>
<g transform="translate(0.000000,1159.000000) scale(0.100000,-0.100000)"
fill="#000000" stroke="none">
<path d="M7870 9744 c-146 -40 -155 -43 -148 -50 5 -5 296 -83 311 -84 4 0 7
38 7 85 0 102 12 98 -170 49z"/>
<path d="M8006 9439 c-18 -41 -64 -137 -101 -214 -36 -77 -92 -194 -123 -260
-31 -66 -94 -196 -138 -290 l-82 -170 491 -3 c269 -1 492 0 495 2 3 4 -491
990 -504 1005 -2 2 -19 -30 -38 -70z"/>
<path d="M7682 7988 l3 -483 378 -3 377 -2 0 485 0 485 -380 0 -380 0 2 -482z"/>
<path d="M6975 8319 c-487 -37 -977 -150 -1450 -336 -152 -59 -506 -230 -650
-313 -383 -222 -734 -498 -1070 -841 -480 -491 -850 -1074 -1090 -1720 -190
-509 -296 -1057 -307 -1589 l-3 -135 95 0 95 0 7 186 c33 956 364 1887 946
2664 254 339 609 695 948 950 658 496 1444 815 2264 919 203 26 399 37 635 35
l230 -2 0 94 0 94 -270 1 c-148 1 -319 -2 -380 -7z"/>
<path d="M8470 8105 l0 -95 28 -6 c15 -4 96 -26 181 -51 986 -283 1881 -906
2499 -1742 433 -585 724 -1255 856 -1967 46 -248 76 -548 76 -756 l0 -108 96
0 97 0 -6 203 c-27 906 -332 1829 -854 2592 -307 447 -712 867 -1148 1190
-506 375 -1109 662 -1712 814 -121 31 -113 36 -113 -74z"/>
<path d="M6682 7617 c-84 -22 -149 -43 -145 -47 10 -9 284 -80 306 -80 15 0
17 13 17 85 0 62 -3 85 -12 84 -7 0 -82 -19 -166 -42z"/>
<path d="M7680 7310 l0 -160 -70 0 -70 0 -26 -52 c-42 -82 -119 -192 -184
-262 -64 -68 -162 -142 -177 -133 -5 3 -74 157 -153 342 -79 184 -145 333
-148 331 -2 -3 -75 -166 -162 -363 l-158 -358 64 -3 64 -3 0 -74 0 -75 960 0
960 0 0 315 0 315 -70 0 -70 0 0 170 0 170 -380 0 -380 0 0 -160z"/>
<path d="M8893 7056 c-84 -22 -153 -43 -153 -46 0 -7 313 -89 322 -84 11 7 4
167 -7 169 -5 1 -79 -16 -162 -39z"/>
<path d="M5172 7017 c-84 -22 -149 -44 -145 -47 6 -6 274 -79 307 -84 4 0 9
38 10 87 0 53 -3 87 -9 86 -5 0 -79 -19 -163 -42z"/>
<path d="M9044 6804 c-21 -49 -114 -295 -114 -300 0 -2 59 -4 130 -4 97 0 130
3 130 13 0 12 -118 318 -126 326 -2 2 -11 -13 -20 -35z"/>
<path d="M5327 6768 c-30 -49 -412 -763 -412 -771 0 -6 563 -11 833 -7 8 0
-20 64 -71 163 -47 89 -140 268 -207 397 -67 129 -124 237 -125 238 -2 2 -10
-7 -18 -20z"/>
<path d="M9693 6527 c-84 -23 -153 -45 -153 -48 0 -3 64 -23 143 -44 78 -21
150 -40 160 -42 15 -5 17 4 17 86 0 50 -3 91 -7 90 -5 -1 -77 -20 -160 -42z"/>
<path d="M6660 6223 l0 -238 1017 2 c559 2 1018 4 1020 6 1 2 -8 26 -22 54
-50 104 -95 284 -95 379 l0 34 -960 0 -960 0 0 -237z"/>
<path d="M8905 6448 c-8 -22 -103 -272 -110 -290 -6 -14 1 -17 42 -20 l48 -3
-3 -57 c-5 -80 3 -100 36 -94 15 2 93 5 175 5 l147 1 0 75 0 75 45 0 c30 0 45
4 44 13 0 6 -26 77 -57 157 l-57 145 -153 3 c-117 2 -154 0 -157 -10z"/>
<path d="M6100 6210 c-61 -121 -107 -221 -103 -221 32 -6 433 -2 433 3 0 12
-208 438 -214 438 -3 0 -55 -99 -116 -220z"/>
<path d="M9841 6253 c-47 -101 -108 -263 -100 -263 5 -1 52 -1 104 -1 52 0 99
0 104 1 9 0 -75 267 -89 283 -3 4 -12 -5 -19 -20z"/>
<path d="M4861 5902 c-8 -18 -11 -91 -9 -217 l3 -190 2253 -3 c1238 -1 2252 2
2252 6 0 5 -27 47 -60 93 l-60 84 0 127 0 128 -175 0 -175 0 -6 -25 c-3 -13
-4 -45 -2 -70 2 -25 0 -45 -4 -45 -13 0 -84 68 -109 105 l-24 35 -1042 0
-1043 0 0 -35 0 -35 -80 0 -80 0 -17 35 -17 35 -253 0 -253 0 -74 -147 -75
-148 0 128 c-1 71 -6 137 -11 148 -10 18 -26 19 -469 19 l-459 0 -11 -28z"/>
<path d="M9621 5729 c-46 -110 -86 -209 -88 -220 -5 -18 4 -19 291 -19 191 0
296 4 296 10 0 6 -31 103 -70 217 -38 114 -70 208 -70 210 0 2 -62 3 -138 3
l-137 0 -84 -201z"/>
<path d="M4025 5846 c-66 -18 -133 -36 -149 -40 -15 -4 -26 -9 -23 -12 6 -6
297 -84 315 -84 9 0 12 24 12 85 0 75 -2 85 -17 84 -10 -1 -72 -16 -138 -33z"/>
<path d="M4146 5556 c-14 -25 -26 -49 -26 -55 0 -7 24 -11 60 -11 l60 0 -25
49 c-13 27 -29 52 -34 55 -5 3 -21 -14 -35 -38z"/>
<path d="M10436 5542 c-14 -21 -26 -41 -26 -45 0 -4 25 -7 55 -7 30 0 55 3 55
8 0 8 -49 82 -54 82 -2 0 -15 -17 -30 -38z"/>
<path d="M3955 5233 c-60 -103 -111 -193 -113 -200 -3 -10 63 -13 328 -13
l332 0 -50 93 c-28 50 -77 139 -109 197 l-59 105 -109 2 -110 3 -110 -187z"/>
<path d="M4850 5220 l0 -200 2985 0 c1642 0 2985 3 2985 6 0 4 -19 37 -43 73
-24 36 -79 123 -123 193 l-79 127 -112 1 -112 0 -66 -95 c-36 -52 -68 -95 -70
-95 -2 0 -18 43 -35 95 l-32 95 -328 0 -328 0 -12 -30 -13 -31 -21 30 -21 31
-2287 0 -2288 0 0 -200z"/>
<path d="M3653 4720 c-63 -107 -122 -205 -129 -217 -14 -22 -13 -23 13 -23 16
0 742 0 1614 0 l1586 0 94 49 c319 167 696 161 1001 -16 l56 -33 1640 2 1639
3 -135 213 -135 212 -3023 0 -3024 0 0 -90 0 -90 -93 0 -92 0 -50 90 -50 90
-365 1 c-201 1 -380 2 -398 3 -33 2 -34 1 -149 -194z"/>
<path d="M3650 4125 l0 -215 1348 0 1348 0 13 50 c25 97 133 293 190 344 11
11 21 23 21 28 0 4 -657 8 -1460 8 l-1460 0 0 -215z"/>
<path d="M8093 4298 c85 -106 138 -202 173 -313 l22 -70 1296 -3 1296 -2 0
215 0 215 -1411 0 -1410 0 34 -42z"/>
<path d="M3654 3727 c-2 -7 -3 -94 -2 -192 l3 -180 1330 0 1330 0 3 193 2 192
-1330 0 c-1074 0 -1332 -2 -1336 -13z"/>
<path d="M8314 3727 c-2 -7 -3 -94 -2 -192 l3 -180 1280 0 1280 0 0 190 0 190
-1278 3 c-1034 2 -1279 0 -1283 -11z"/>
<path d="M5255 3069 c-90 -13 -171 -46 -205 -85 -31 -36 -46 -75 -37 -98 6
-15 78 -30 118 -24 38 5 29 32 -13 42 -132 33 114 68 327 47 232 -23 451 -85
674 -192 305 -146 502 -324 571 -516 29 -80 25 -205 -7 -268 -45 -87 -128
-147 -258 -188 -156 -49 -409 -61 -497 -24 l-38 16 0 204 c0 182 2 206 17 211
9 4 60 2 113 -4 142 -16 300 -64 300 -92 0 -7 -17 -28 -37 -45 -37 -32 -37
-33 -19 -48 11 -8 39 -15 63 -15 35 0 50 6 82 36 56 50 68 91 42 148 -35 81
-148 133 -346 161 -55 8 -124 15 -152 15 -60 0 -58 -3 -67 117 -6 95 -23 146
-57 179 -32 31 -40 27 -58 -26 -15 -45 -41 -204 -41 -252 0 -30 -4 -38 -17
-38 -42 0 -231 -53 -290 -81 -35 -17 -81 -47 -103 -68 -51 -48 -54 -95 -11
-162 53 -84 214 -219 352 -296 39 -22 49 -34 54 -62 20 -104 51 -133 124 -115
30 8 37 14 44 48 9 35 11 38 38 32 112 -22 254 -29 357 -18 143 16 209 34 322
89 212 102 318 278 289 480 -17 119 -82 235 -203 362 -348 362 -977 595 -1431
530z m460 -1051 c-4 -95 -11 -177 -16 -182 -13 -15 -140 40 -216 93 -81 57
-153 133 -153 161 0 11 10 26 23 34 39 26 217 60 335 65 l34 1 -7 -172z"/>
<path d="M7120 2940 c-138 -29 -285 -159 -305 -270 -5 -27 0 -47 19 -85 14
-27 26 -63 26 -78 0 -38 27 -87 47 -87 9 0 25 8 36 18 15 13 38 17 111 17 86
0 97 2 168 38 121 59 222 164 242 249 13 56 -43 128 -99 128 -9 0 -18 7 -22
15 -16 42 -138 72 -223 55z m-121 -209 c-41 -43 -78 -79 -82 -80 -13 -2 2 40
28 80 20 32 92 79 119 79 5 0 -24 -35 -65 -79z m366 39 c28 -87 -105 -185
-267 -198 -47 -3 -68 -1 -68 7 0 23 142 160 193 186 65 32 133 34 142 5z"/>
<path d="M8245 2428 c-3 -13 13 -86 36 -163 30 -105 42 -165 46 -237 4 -61 2
-98 -4 -98 -5 0 -50 62 -99 137 -173 266 -193 280 -245 170 -32 -70 -52 -153
-69 -292 -19 -150 9 -250 68 -243 41 5 61 56 68 174 7 147 14 204 25 204 5 0
34 -51 65 -112 118 -236 186 -282 269 -185 45 53 65 120 65 222 0 152 -67 334
-151 410 -45 41 -66 44 -74 13z"/>
<path d="M9242 2326 c-84 -96 -157 -238 -174 -339 -9 -54 -8 -78 6 -139 17
-71 17 -74 -3 -120 -47 -111 -111 -365 -111 -444 0 -67 61 -144 113 -144 22 0
24 6 52 132 14 62 44 177 67 256 l41 142 32 0 c96 0 245 78 329 171 70 78 91
129 91 224 -2 175 -73 266 -172 219 -50 -24 -177 -146 -266 -257 -71 -88 -72
-88 -75 -57 -4 37 50 157 104 233 45 62 56 93 49 129 -9 40 -45 37 -83 -6z
m353 -189 c7 -27 -9 -107 -30 -146 -16 -32 -82 -94 -122 -114 -31 -17 -103
-38 -103 -31 0 16 89 177 117 212 80 98 127 125 138 79z"/>
<path d="M7007 2343 c-8 -13 -26 -190 -37 -357 -11 -167 -3 -253 25 -276 8 -7
32 -14 54 -17 34 -5 41 -2 57 22 17 26 17 42 5 285 -14 288 -20 326 -57 340
-30 12 -41 12 -47 3z"/>
<path d="M7443 2334 c-135 -29 -218 -86 -230 -157 -15 -95 17 -115 206 -128
200 -13 312 -47 319 -97 3 -19 -6 -27 -50 -47 -58 -26 -204 -55 -277 -54 -91
1 -143 36 -111 74 18 21 86 19 155 -5 75 -26 140 -26 183 0 17 11 32 23 32 28
0 29 -202 78 -282 69 -93 -11 -148 -56 -148 -120 0 -69 121 -157 243 -177 107
-17 237 12 301 68 49 43 70 150 42 215 -33 77 -91 103 -278 122 -134 13 -201
27 -222 46 -16 14 67 29 239 44 216 18 245 23 273 41 22 15 30 48 13 58 -5 3
-44 13 -88 21 -95 18 -236 18 -320 -1z"/>
<path d="M8840 2339 c-127 -13 -273 -38 -284 -49 -17 -17 10 -57 57 -79 l45
-22 -21 -51 c-15 -38 -28 -53 -50 -61 -28 -9 -29 -12 -24 -54 3 -30 -3 -68
-20 -121 -26 -81 -25 -120 3 -175 33 -63 137 -86 235 -52 65 23 177 92 196
121 15 24 15 27 -4 52 -19 24 -27 27 -74 25 -30 -2 -89 -8 -132 -14 -43 -6
-80 -10 -82 -7 -3 2 4 29 14 59 l19 54 118 10 c106 9 118 12 125 32 4 12 4 34
0 50 -7 28 -8 28 -99 31 l-92 3 0 34 c0 56 18 65 128 65 117 0 184 23 175 60
-10 39 -67 90 -101 90 -17 0 -36 2 -44 4 -7 2 -47 0 -88 -5z"/>
</g>
</svg>
